# xmcd
#
# Track frame offsets:
#	150
#	15616
#	32744
#	45407
#	62525
#	74359
#	81405
#	95624
#	109284
#	118596
#	133318
#	143103
#	157597
#	171238
#
# Disc length: 2457 seconds
#
# Revision: 1
# Processed by: cddbd v1.5.2PL0 Copyright (c) Steve Scherf et al.
# Submitted via: audiograbber 1.83.01
#
DISCID=bc09970e
DTITLE=Marjolein Meijers en Jan Rot - An en Jan gaan Landelijk
DYEAR=2008
DGENRE=country translations
TTITLE0=Goddank voor het platteland
TTITLE1=Mijn naam is Mien
TTITLE2=Pauline
TTITLE3=Weer samen in zee
TTITLE4=Gorkum
TTITLE5=Mercedes Benz
TTITLE6=Burgerman
TTITLE7=Hart van Goud
TTITLE8=YippieYayee
TTITLE9=Hollandse wals
TTITLE10=Rot voor mij
TTITLE11=Hartzeer
TTITLE12=Breng de doden weer tot leven
TTITLE13=Wilhelmus
EXTD=www.anjan.nl
EXTT0=
EXTT1=
EXTT2=
EXTT3=
EXTT4=
EXTT5=
EXTT6=
EXTT7=
EXTT8=
EXTT9=
EXTT10=
EXTT11=
EXTT12=
EXTT13=
PLAYORDER=
